<?xml version="1.0" encoding="UTF-8"?><svg id="_레이어_2" xmlns="http://www.w3.org/2000/svg" viewBox="0 0 165 151.38"><defs><style>.cls-1{fill:#090909;}.cls-2{fill:#d1d1d1;}.cls-3{fill:#e5e5e5;}.cls-4{fill:#949494;}</style></defs><g id="_레이어_1-2"><g><path class="cls-3" d="m164.83,104.92c.38-1.55.13-3.15-.7-4.51-.83-1.36-2.14-2.32-3.69-2.69-1.09-.26-2.12-.42-3.05-.56-.93-.14-1.73-.26-2.36-.46-.54-.16-1.84-.44-2.38-.55-1.22-.25-2.46-.5-3.74-.33,1.09-4.95,1.65-10.06,1.65-15.25,0-3.08-.2-6.18-.6-9.24,2-1.91,3.69-4.33,4.78-6.83,2.63-5.87,2.85-12.84.57-18.18-1.43-3.35-3.61-5.96-6.66-7.96l-5.03-3.34c-3.33-2.24-7.43-3.11-11.95-2.55-13.4-14.46-32.22-22.72-51.92-22.72-8.91,0-17.55,1.67-25.55,4.76-.03-.66-.16-1.31-.4-1.93-1.17-2.99-2.41-6.01-3.68-8.97-.63-1.47-1.79-2.6-3.27-3.19-1.48-.6-3.1-.58-4.57.05-1.47.63-2.6,1.79-3.19,3.27-.06.15-.11.29-.16.44C18.72-2.02,8.72,5.22,3.85,12.78c-7.05,10.94-3.14,24.15,1.61,35.63,1.74,4.21,3.83,8.46,6.21,12.65-1.82,6.33-2.73,12.88-2.73,19.51,0,2.79.17,5.62.5,8.41-2.04,4.54-2.17,9.32-.36,13.58,1.1,2.58,2.73,4.62,5.61,6.93-3.36,1.95-4.69,4.75-4.41,9.05.21,2.91,1.22,7.26,2.27,9.71,1.19,2.8,2.7,4.18,5.36,4.92l5.8,1.7c2.19.63,5.3.23,9.26-1.19,12.96,11.43,29.49,17.7,46.79,17.7,12.88,0,25.46-3.5,36.46-10.13.15.03.3.06.46.08,1.38.25,2.77.46,4.13.64,4.38.56,11.03,1.02,17.81.05,12.2-1.73,20.39-7.51,23.7-16.72,1.92-5.35,1.77-11.28-.3-16.62,1.37-.79,2.43-2.11,2.83-3.77Zm-21.28,6.4c.03,3.24,2.66,5.88,5.92,5.91.31,0,.59-.02.89-.06.46-.07.9-.18,1.32-.35.09,1.53-.11,3.04-.62,4.46-2.86,7.98-13.18,9.5-21.32,9.4,5.72-5.69,10.37-12.24,13.81-19.36ZM13.88,19.25c1.68-2.61,4.55-5.47,10.96-5.47,2.33,0,5.12.38,8.5,1.28-.3.91-.36,1.89-.19,2.86.49,2.77,2.83,4.8,5.6,4.92-8.61,6.12-15.86,14.17-21.09,23.71-.41-.9-.8-1.8-1.17-2.7-3.57-8.63-6.67-18.29-2.6-24.6Z"/><circle class="cls-4" cx="79.74" cy="80.57" r="65.77"/><circle class="cls-3" cx="79.74" cy="81.43" r="48.23"/><g><g><path class="cls-1" d="m79.74,148.1c-37.24,0-67.53-30.29-67.53-67.53S42.5,13.04,79.74,13.04s67.53,30.29,67.53,67.53-30.29,67.53-67.53,67.53Zm0-131.55c-35.3,0-64.02,28.72-64.02,64.02s28.72,64.02,64.02,64.02,64.02-28.72,64.02-64.02S115.04,16.55,79.74,16.55Z"/><path class="cls-1" d="m79.74,131.41c-27.56,0-49.99-22.43-49.99-49.99s22.42-49.99,49.99-49.99,49.99,22.43,49.99,49.99-22.42,49.99-49.99,49.99Zm0-96.47c-25.63,0-46.48,20.85-46.48,46.48s20.85,46.48,46.48,46.48,46.48-20.85,46.48-46.48-20.85-46.48-46.48-46.48Z"/><g><path class="cls-1" d="m159.66,100.9c-.95-.23-1.86-.37-2.75-.5-1.02-.15-1.98-.3-2.86-.57-.37-.11-1.65-.38-2.06-.47-1.78-.36-2.76-.56-3.8.18-.68.48-1.1,1.26-1.13,2.09-.12,3.18-.2,6.4-.23,9.59-.01,1.48,1.18,2.69,2.66,2.71.14,0,.27,0,.4-.03,1.29-.18,2.29-1.29,2.3-2.63,0-.88.02-1.76.04-2.65,2.71,4.05,3.54,9.23,1.91,13.76-4.68,13.04-24.13,12.04-32.27,11.01-1.21-.15-2.45-.35-3.69-.57-13.73-2.48-26.67-8.92-36.42-14.25-3.95-2.16-7.91-4.49-11.78-6.91-1.67-1.05-3.35-2.13-4.99-3.22-1.24-.82-2.9-.48-3.72.76-.82,1.24-.48,2.9.76,3.72,1.68,1.11,3.4,2.22,5.1,3.29,3.96,2.48,8.02,4.86,12.06,7.08,10.1,5.53,23.55,12.21,38.04,14.83,1.33.24,2.66.44,3.96.61,4.02.51,10.44.98,16.94.06,8.74-1.24,17.63-5,21.07-14.58,2.21-6.16,1.21-12.97-2.35-18.37.53.08,1.05.17,1.54.29,1.44.35,2.89-.53,3.24-1.98.35-1.44-.53-2.89-1.98-3.24Z"/><path class="cls-1" d="m50.73,13.79c-1.17-2.97-2.39-5.95-3.64-8.88-.58-1.36-2.16-2-3.52-1.41-1.36.58-2,2.16-1.41,3.52.29.69.59,1.38.88,2.08C32.81,5.12,15.56.66,6.6,14.56c-6.23,9.66-2.55,21.9,1.88,32.6,2.02,4.87,4.49,9.77,7.35,14.55,2.49,4.17,5.35,8.36,8.49,12.48,1.45,1.9,2.17,2.94,2.69,3.7,1.16,1.67,1.56,2.2,4.89,5.57.57.57,1.32.84,2.07.79.63-.04,1.24-.29,1.73-.77,1.05-1.04,1.06-2.74.02-3.8-3.13-3.17-3.36-3.49-4.3-4.85-.56-.8-1.32-1.9-2.84-3.9-3.02-3.95-5.76-7.98-8.14-11.97-2.72-4.56-5.08-9.21-6.99-13.84-3.89-9.41-7.22-20.06-2.33-27.64,5.09-7.9,14.44-9.1,29.15-3.63-.59.16-1.15.3-1.71.4-1.46.26-2.43,1.65-2.18,3.11.24,1.36,1.46,2.29,2.8,2.21.1,0,.21-.02.31-.04.96-.17,1.85-.41,2.72-.64.99-.27,1.93-.52,2.85-.63.39-.04,1.66-.31,2.08-.4,1.77-.38,2.75-.59,3.41-1.69.43-.71.5-1.6.2-2.37Z"/></g></g><g><g><g><path class="cls-1" d="m31.03,95.63c-.96.41-1.27,1.45-.81,2.53.22.51.56.97,1.25,1.51l4.72,3.65c2.7,2.1,4.7,4.49,5.74,6.92,1.58,3.71,1.51,8.34-.14,11.38-1.5,2.68-4.48,5.08-8.38,6.74-3.71,1.58-7.02,2.31-8.39,1.91l-5.78-1.69c-1.29-.36-1.67-.72-2.29-2.19-.84-1.98-1.73-5.83-1.89-8.17-.19-2.94.49-3.98,3.24-5.15,4.47-1.9,5.7-1.67,6.92,1.36l.32-.14c.45-.19.64-.8.37-1.44-.38-.89-1.23-1.82-2.96-3.04l-3.92-3.01c-3.19-2.34-4.64-3.99-5.54-6.09-3.02-7.09,2.1-15.99,11.49-19.98,1.66-.71,3.12-1.18,4.79-1.51,1.48-.25,2.19-.18,3.14.47l4.99,3.39c.63.41,1.06.91,1.28,1.42.33.77,1.14,4.8,1.33,6.68.21,1.72-.89,2.87-3.96,4.17-2.04.87-2.99,1.12-3.6.93l-1.92-.62Z"/><path class="cls-1" d="m34,129.74c-1.54.66-6.77,2.73-9.41,1.97l-5.78-1.69c-1.72-.48-2.46-1.17-3.26-3.06-.89-2.1-1.83-6.14-2.01-8.66-.23-3.56.82-5.23,4.16-6.66,1.39-.59,2.56-1.02,3.59-1.22l-3.2-2.45c-3.34-2.46-4.98-4.28-6.01-6.7-3.38-7.95,2.02-17.6,12.29-21.97,1.8-.76,3.36-1.26,5.09-1.6,1.7-.29,2.87-.26,4.29.71l4.99,3.38c.85.56,1.49,1.28,1.83,2.08.42.99,1.25,5.21,1.45,7.11.36,3.05-2.13,4.56-4.87,5.73-2.24.95-3.51,1.34-4.65.98l-.94-.3c.02.07.05.14.06.18.1.22.26.49.79.91l4.71,3.64c2.93,2.27,5.08,4.87,6.2,7.52,1.76,4.13,1.68,9.23-.2,12.69-1.68,3-4.91,5.62-9.12,7.41Zm-15.12-15.3c-2.17.92-2.47,1.4-2.32,3.66.16,2.2,1,5.87,1.78,7.68.47,1.09.51,1.11,1.3,1.33l5.79,1.7c.74.21,3.53-.22,7.37-1.85,3.59-1.53,6.31-3.69,7.65-6.08,1.43-2.63,1.46-6.77.07-10.04-.93-2.17-2.75-4.36-5.27-6.31l-4.72-3.65c-.85-.67-1.38-1.32-1.71-2.11-.8-1.88-.12-3.78,1.61-4.52l.52-.22,2.46.79c.12,0,.68-.09,2.55-.88,3.19-1.36,3.11-2.11,3.05-2.6-.2-1.9-.98-5.68-1.22-6.27-.05-.11-.21-.41-.72-.74l-5.01-3.4c-.49-.33-.73-.45-2.04-.23-1.49.3-2.83.72-4.45,1.41-8.57,3.65-13.36,11.72-10.69,18,.8,1.87,2.16,3.35,5.04,5.47l3.95,3.03c1.87,1.32,2.9,2.42,3.43,3.65.59,1.39.08,2.9-1.17,3.43l-1.75.74-.58-1.44c-.37-.92-.7-1.45-.99-1.57-.74-.31-3.13.71-3.92,1.04Z"/></g><g><path class="cls-1" d="m68.12,111.9c-.17,1.73-.51,2.18-1.91,2.78-2.11.9-4.8,1.14-6.76.61l-4.26-1.13c-1.9-.4-2.33-1.04-5.06-7.28l-8.66-20.69c-.98-2.3-2.27-6.05-2.49-7.09-.34-1.51.54-2.8,2.4-3.59,3.13-1.33,6.48-1.62,8.04-.78l4.93,2.88c.17-6.86.51-7.84,3-8.9,3.13-1.33,5.95-1.63,7.32-.7l5.56,3.67-.03-4.14c-.04-3.46.43-4.49,2.28-5.27,1.28-.54,3.29-.95,5.45-1.03,1.47-.1,2.23.11,3.31.86l3.95,2.54c1.02.62,1.05.69,1.24,1.13.63,1.47.58,14.84-.06,27.87q-.25,5.09-.72,10.19c-.22,2.51-.53,3.02-1.93,3.61-.64.27-2.19.71-3.83,1.1-1.23.3-1.79.23-2.71.02l-5.33-1.35c-.77-.2-1.41-.83-2.12-1.97l-.76-1.26-.86,7.91Z"/><path class="cls-1" d="m84.32,108.84c-.97.41-3.17.96-4.07,1.18-1.46.35-2.26.29-3.41.02l-5.36-1.36c-.54-.14-1.01-.4-1.42-.72l-.44,4.09c-.22,2.25-.88,3.19-2.83,4.02-2.41,1.03-5.45,1.29-7.74.68l-4.21-1.12c-2.7-.57-3.38-1.93-6.1-8.15l-8.67-20.71c-.97-2.28-2.32-6.14-2.57-7.37-.5-2.21.73-4.2,3.29-5.29,2.97-1.27,7.02-1.98,9.36-.72l2.77,1.62c.21-4.64.81-6.41,3.84-7.7,3.74-1.59,6.93-1.8,8.76-.56l3.18,2.1v-1.3c-.05-3.58.42-5.5,3.2-6.68,1.49-.63,3.72-1.06,5.98-1.15,1.76-.12,2.88.18,4.24,1.13l3.9,2.51c1.11.68,1.44.95,1.81,1.82.99,2.34.47,20.24.06,28.54q-.25,5.12-.72,10.26c-.24,2.8-.71,3.96-2.85,4.87Zm-16.37-9.47l3.08,5.1c.48.76.89,1.2,1.21,1.29l5.32,1.35c.67.16,1,.21,1.98-.02,1.9-.46,3.17-.85,3.59-1.02.78-.33.84-.36,1.02-2.35q.47-5.08.71-10.14c.72-14.6.58-25.88.16-27.24-.16-.11-.49-.32-.62-.39l-3.98-2.56c-.79-.55-1.2-.7-2.39-.62-1.92.08-3.8.43-4.95.92-.96.41-1.4.59-1.36,3.86l.04,6.99-7.93-5.23c-.62-.42-2.69-.53-5.89.83-1.58.67-1.91.81-2.08,7.54l-.06,2.57-7.14-4.18c-.96-.52-3.82-.35-6.68.87-1.17.5-1.68,1.12-1.51,1.86.18.88,1.41,4.5,2.41,6.83l8.66,20.7c2.67,6.11,2.9,6.16,3.97,6.38l.08.02,4.26,1.13c1.63.44,4,.21,5.77-.54q.88-.38,1-1.53v-.02s1.34-12.37,1.34-12.37Z"/></g><g><path class="cls-1" d="m93.4,61.29c.55-6.87,1.19-8.73,3.36-9.66,1.47-.63,5.76-1.54,7.15-1.46,1.21.01,1.88.33,4.27,1.88,2.96,1.99,3.1,2.15,4.39,4.47.81,1.54,2.34,4.97,4.33,9.63.95,2.24,2.89,7.15,3.83,9.54l3.63,9.77c1.3,3.6.97,4.42-2.8,6.02-2.17.92-2.96,1.03-4.21.74l-5.2-1.41c-1.44-.37-2.06-.93-2.82-2.72l-.7-1.82-.58.24-.26,6.83c-.14,3.38-.3,3.9-1.52,4.42-1.66.71-5.59.87-7.42.29l-4.74-1.38c-1.13-.35-1.81-.89-2.17-1.72-.33-.77-.48-1.83-.39-3.23l.05-2.36c-.91-.37-1.27-.67-1.65-1.56-.3-.7-.55-1.65-.67-2.81l-.35-2.95c-.37-3.16.32-4.74,2.49-5.66l.7-.3,1.25-14.8Z"/><path class="cls-1" d="m122.17,92.88c-2.41,1.03-3.52,1.2-5.15.82l-5.25-1.42c-1-.26-1.74-.62-2.35-1.23l-.09,2.36c-.13,3.1-.21,4.81-2.44,5.75-2.02.86-6.29,1.03-8.47.34l-4.7-1.37c-1.59-.49-2.61-1.33-3.14-2.58-.44-1.02-.61-2.34-.51-3.92l.03-1.34c-.7-.44-1.13-1-1.51-1.89-.39-.92-.66-2.04-.78-3.25l-.35-2.92c-.29-2.54-.18-5.63,3.27-7.18l1.17-13.88c.52-6.55,1.08-9.57,4.28-10.93,1.65-.7,6.09-1.66,7.8-1.58,1.65.02,2.65.57,5.04,2.12,3.15,2.12,3.47,2.44,4.89,5.01,1.04,1.99,2.96,6.41,4.39,9.77.68,1.61,1.98,4.83,3.85,9.58l3.64,9.8c1.6,4.41.85,6.04-3.62,7.94Zm-15.58-7.38l2.91-1.24,1.26,3.28c.61,1.44.92,1.58,1.78,1.8l5.22,1.41c.75.17,1.15.21,3.22-.67q2.99-1.27,1.96-4.11l-3.63-9.76c-1.85-4.69-3.13-7.89-3.81-9.47-2.02-4.75-3.5-8.04-4.27-9.52q-1.15-2.07-3.89-3.91c-2.39-1.54-2.71-1.62-3.44-1.62h-.08c-1.08-.07-5.13.77-6.46,1.34-1.28.54-1.9,1.5-2.44,8.38h0s-1.33,15.71-1.33,15.71l-1.54.66c-1.15.49-1.93,1.07-1.58,4.1l.35,2.94c.12,1.18.37,1.95.56,2.39.2.47.22.51.82.75l.97.39-.07,3.41c-.09,1.43.1,2.2.27,2.6.12.29.36.6,1.22.87l4.71,1.37c1.5.47,5.07.34,6.4-.23.23-.1.29-.14.29-.15.19-.3.27-2.08.3-2.94l.3-7.78Z"/></g><g><path class="cls-1" d="m121.21,58.26c-.33.29-.69.52-.94.63-1.21.52-2.53-.28-3.27-2.01-1.14-2.68-1.69-6.98-1.08-9.28.65-2.92,4.71-6.31,10.27-8.67,5.81-2.47,11.04-2.43,14.74.06l5.05,3.36c2.3,1.51,3.87,3.41,4.9,5.84,1.77,4.15,1.55,9.68-.54,14.34-1.45,3.33-4.28,6.43-6.84,7.51q-.38.16-1.49-.12l-1.89-.55,1.9,11.57c.27,1.7.02,2.18-1.45,2.81-2.56,1.09-5.35,1.45-7.46.91l-4.69-1.1c-.98-.19-1.69-.79-2.05-1.62-.22-.51-.36-1.2-.6-2.46-.27-1.7-.45-2.83-.52-3.17l-.62-3.58-2.32-15.39-1.11.93Z"/><path class="cls-1" d="m141.17,85.15c-2.88,1.22-6.03,1.59-8.43.99l-4.64-1.08c-1.43-.28-2.57-1.19-3.13-2.51-.29-.68-.45-1.5-.69-2.78v-.07c-.26-1.55-.45-2.77-.51-3.07l-.63-3.64-1.94-12.87c-.12.07-.24.12-.35.17-2.03.86-4.19-.29-5.26-2.81-1.31-3.08-1.83-7.65-1.16-10.23.77-3.39,5.04-7.11,11.15-9.71,6.28-2.67,12.03-2.6,16.18.2l5.04,3.35c2.5,1.64,4.29,3.77,5.46,6.51,1.93,4.53,1.72,10.5-.55,15.55-1.58,3.64-4.72,7.05-7.63,8.29-.76.32-1.17.28-2.09.04l1.52,9.21c.38,2.39-.24,3.55-2.35,4.45Zm-17.76-30.69l2.72,18.05.61,3.55c.07.31.22,1.25.52,3.17.21,1.16.34,1.78.5,2.14.17.39.48.64.93.72h.06s4.69,1.11,4.69,1.11c1.78.45,4.27.13,6.52-.83.39-.16.55-.27.62-.32,0-.09.01-.32-.07-.86l-2.29-13.93,4.21,1.22c.2.05.42.11.56.14,2.2-.98,4.68-3.77,5.95-6.68,1.94-4.33,2.14-9.36.53-13.14-.93-2.2-2.31-3.84-4.34-5.16l-5.06-3.36c-3.28-2.21-8.01-2.19-13.31.07-5.84,2.49-8.96,5.68-9.38,7.61v.06c-.52,1.91-.04,5.86.99,8.29.36.84.91,1.36,1.28,1.2.06-.02.28-.14.53-.37l.03-.03,3.18-2.65Z"/></g></g><path class="cls-1" d="m28.38,95.57s5.44.74,5.71.83.62,5.98.62,5.98l-6.33-6.8Z"/><polygon class="cls-1" points="123.56 81.77 126.21 82.44 126.82 85.78 125.65 87.72 123.56 81.77"/><polygon class="cls-1" points="144.86 82.44 141.56 81.05 140.05 69.99 144.5 69.54 144.86 82.44"/></g></g><g><path class="cls-2" d="m27.27,93c.34.99.94.96,3.68-.21,3.07-1.31,3.86-2.1,3.9-3.77.06-1.46-.74-5.65-1.37-7.11-.9-2.11-3.26-2.16-7.99-.15-8.63,3.67-13.59,12.05-10.9,18.37.79,1.85,2.12,3.4,4.77,5.36l4.64,3.46c1.46,1.12,2.74,2.53,3.17,3.55.6,1.41,0,2.64-1.48,3.27-.32.14-.86.29-1.33.42l-.6-1.93c-.02-.22-.13-.47-.18-.6-.3-.7-.57-.81-1.42-.68-.69.14-2.47.75-3.56,1.21-1.98.84-2.52,1.53-2.43,3.15.15,2.65.97,6.53,1.76,8.38.57,1.34,1.62,2.03,2.99,2.05,1.19-.05,4.48-1,7.16-2.14,8.31-3.53,11.4-10.28,8.16-17.89-1.11-2.62-3.09-4.95-6.39-7.39l-3.95-3.07c-.63-.41-1.09-.97-1.34-1.54-.63-1.47.12-2.54,2.4-3.59l.29.86Z"/><path class="cls-2" d="m63.48,87c.34.99.64,1.69.69,1.97l1.15,3.06c.34.99.7,1.82,1.05,2.65l3.58,8.59c1.01,2.36,1.65,2.99,3.21,2.94,1.28-.02,3.27-.48,4.73-1.11,1.98-.84,2.02-.93,2.42-4.95q.23-2.82.51-7.31c.55-9.52.67-17.57.37-24.84q-.13-4.02-.37-4.6c-.3-.7-1.03-1-2.7-1.04-1.65.02-4.13.4-5.22.86-1.34.57-1.71,1.48-1.62,4.16l.4,12.28.07,2.84v3.17c0,.37.02,1.12,0,2.33-.96-2.61-1.95-5.28-3.02-8.15l-3.82-9.16c-.6-1.41-.97-1.93-1.68-2-1.08-.22-3.79.33-5.57,1.09-1.47.63-1.78,1.14-1.98,2.8-.17,1.73-.25,3.5-.21,4.47l.21,9.72c-.03,1.52-.01,1.74.21,4.74v1.21c.03.28.05,1.03.11,2.06-.37-1.05-.61-1.78-.74-2.1l-1.03-2.96-1.01-2.89-3.09-8.5-.27-.64c-.76-1.79-1.2-2.28-2.19-2.31-1.46-.06-4.39.51-6.05,1.22-1.98.84-2.14,1.36-.85,4.74.16.38.54,1.28,1.01,2.74.48,1.31,1.02,2.58,1.16,2.9l.79,1.85,5.91,14.24.24.58c.08.19.52,1.21,1.21,2.66,1.93,4.54,2.91,6.31,3.55,6.56,1.03.47,4.29.14,6.14-.65,1.34-.57,1.79-1.29,1.98-3.33l.69-8.14c.19-3.1.18-5.96.02-11.48v-2.27Z"/><path class="cls-2" d="m93.41,76.91c-.73.23-1.18.43-1.43.53-1.85.79-2.19,1.76-1.81,4.62l.4,3.07c.22,1.57.26,1.85.42,2.23.3.7.82.86,1.86.64l-.18,3.47c-.08,1.24.05,2.24.32,2.88.38.89,1.29,1.26,3.22,1.19,2.02-.03,3.53-.22,4.36-.57,1.15-.49,1.41-1.13,1.56-3.61l.34-7.54,1.83-.85c1.98-.84,2.09-1.12,2.21-3.13l.15-2.48,3.66,9.84.18.6c.87,2.04,2.35,2.32,5.41,1.02,3.83-1.63,4.08-2.11,2.74-5.62l-3.85-10.29c-2.06-5.54-2.64-7.1-3.54-9.21-3.92-9.2-5.25-11.8-6.21-12.3-.91-.37-5.87.39-7.92,1.26-1.09.46-1.66,1.24-1.93,2.56-.26,1.7-.8,6.98-1.05,10.48l-.75,11.19Z"/><path class="cls-2" d="m124.99,67.52c.07.88.37,2.64.75,4.59.71,4.15.79,4.34,1.17,7.35.13.85.28,1.54.41,1.86.3.7.99,1.09,1.98,1.12,1.5-.03,4.2-.58,5.67-1.21,1.53-.65,1.72-1.11,1.36-3.37l-2.89-16.36,1.47,2.92c1.32,2.76,2.09,3.49,3.05,3.08,1.79-.76,4.17-2.98,5.65-5.35,2.97-4.73,3.67-11.6,1.65-16.33-1.44-3.39-4.38-6.21-7.59-7.19-3.05-.96-6.94-.52-11.15,1.28-3.58,1.52-6.96,3.87-8.58,5.91-1.12,1.46-1.4,3.09-1.03,6.1.15,1.6.63,3.43,1.12,4.58.46,1.09,1.09,1.5,1.79,1.2.13-.05.36-.23.58-.4l2.88-2.81,1.69,13.01Z"/></g><g><g><polygon class="cls-1" points="102.03 61.69 105.16 72.43 102.42 73.45 102.03 61.69"/><path class="cls-1" d="m105.4,72.99s-.02,0-.03.01l-2.74,1.01c-.18.07-.39.04-.55-.07s-.26-.29-.27-.48l-.4-11.75c0-.31.21-.57.51-.62.3-.05.59.14.68.43l3.14,10.74c.09.3-.06.61-.34.73Zm-2.4-.4l1.42-.53-1.63-5.57.21,6.09Z"/></g><g><path class="cls-1" d="m125.65,52.22c1.89-1.41,2.96-2.09,4.43-2.71,3.07-1.31,5.46-.82,6.33,1.23.63,1.47.4,3.6-.54,5.29-.66,1.11-1.29,1.76-2.79,2.85l-.38-4.97c-.07-.35-.14-.69-.23-.88-.52-1.21-1.62-1.5-4.13-1.19l-2.7.39Z"/><path class="cls-1" d="m133.2,59.15c-.08.03-.17.03-.25,0-.1-.05-.17-.14-.18-.25l-.38-4.97c-.06-.27-.13-.62-.2-.79-.39-.91-1.11-1.34-3.81-1l-2.69.39c-.14.02-.27-.06-.32-.18-.05-.13-.01-.28.1-.36,2.01-1.5,3.06-2.14,4.49-2.75,3.21-1.36,5.79-.83,6.73,1.39.66,1.55.44,3.78-.56,5.55-.68,1.15-1.35,1.84-2.87,2.94-.02.01-.04.02-.06.03Zm-6.38-7.4l1.49-.22c2.33-.29,3.8-.16,4.45,1.37.09.22.17.59.24.94l.34,4.46c1.15-.87,1.7-1.47,2.27-2.43.9-1.61,1.11-3.63.52-5.01-.81-1.91-3.03-2.3-5.94-1.07-1.13.48-2.02.99-3.38,1.96Z"/></g></g></g></g></svg>