<?xml version="1.0" encoding="UTF-8"?><svg id="_레이어_2" xmlns="http://www.w3.org/2000/svg" viewBox="0 0 1055.87 1399.33"><defs><style>.cls-1{stroke-width:9.38px;}.cls-1,.cls-2{fill:none;stroke:#232323;stroke-linecap:round;stroke-linejoin:round;}.cls-2{stroke-width:15.01px;}</style></defs><g id="_レイヤー_1"><g><g><path class="cls-2" d="m160.05,154.18c8.14,14.1,126.06-87.56,132.46-76.48,4.86,8.42-106.22,75.76-100.83,85.11,8.17,14.15,147.46-98.24,153.13-88.41,4.96,8.59-105.52,78.19-101.24,85.6,8.83,15.29,136.14-101.12,145.89-84.23,4.73,8.19-95.46,68.21-89.8,78.01,7.62,13.19,122.94-86.56,129.69-74.88,5.74,9.94-90.66,71.01-87.18,77.05,6.84,11.85,121.21-83.55,127.09-73.37,5.39,9.34-86.51,67.53-83.34,73.01,9.41,16.3,127.5-83.89,131.95-76.18,4.44,7.69-87.19,68.76-84.26,73.83,7.03,12.18,118.05-88.36,126.8-73.21,6.18,10.7-93.95,68.92-89.6,76.47,9.85,17.05,130.09-88.88,136.05-78.55,5.47,9.47-95.74,73.02-91.54,80.28,7.35,12.74,138.31-97.93,146.14-84.38,3.48,6.02-104.95,73.96-99.14,84.02,7.36,12.75,137.79-97.02,145.35-83.92,5.9,10.22-111.7,79-106.62,87.81,8.92,15.45,140.38-95.86,146.8-84.75s-99.71,69.08-93.99,79c5.31,9.2,121.33-83.39,127.11-73.38s-97.81,68.68-92.39,78.05c9.29,16.09,135.68-96.86,143.7-82.96,5.58,9.67-102.41,79.09-99.41,84.28,6.81,11.79,139.05-97.6,146.55-84.61,2.74,4.75-92.64,72.32-89.06,78.52,6.46,11.19,140.59-96.57,147.26-85.02,5.4,9.35-111.42,76.45-104.96,87.65,9.57,16.58,134.03-99.45,143.58-82.9,6.09,10.55-99.29,70.91-93.76,80.48,7.38,12.79,134.36-87.3,138.57-80,5.69,9.86-92.4,66.01-86.6,76.06,7.61,13.18,93.43-68.03,99.53-57.46,2.45,4.25-82.34,63.65-78.55,70.22,3.55,6.15,81.12-61.7,87.55-50.55,5.33,9.24-95.26,69.65-90.02,78.72,3.11,5.39,80.33-57.02,84.94-49.04s-87.8,67.41-83.8,74.34c5.37,9.3,73.23-50.69,76.87-44.38,4.86,8.41-80.42,63.78-77.26,69.26,5.85,10.13,88.71-57.64,91.49-52.82,4.07,7.05-95.81,68.78-90.17,78.54,5.98,10.35,87.57-59.46,91.43-52.79,5.47,9.48-102.71,73.27-97.87,81.67,4.76,8.24,90.78-64,95.79-55.31,3.15,5.46-87.21,67.59-83.93,73.27s65.26-44.62,68.27-39.41c4.28,7.42-79.95,64.38-76.52,70.33,6.11,10.58,78.48-55.27,82.79-47.8s-76.62,62.86-73.3,68.61c5.52,9.55,69.2-52.78,74.76-43.16,5.03,8.71-80.39,64.19-76.18,71.49,5.48,9.49,77.77-52.24,80.95-46.74,5.4,9.35-85.68,66.99-82.32,72.82,4.82,8.34,66.98-46.44,70.35-40.62,4.77,8.27-82.04,65.18-78.15,71.92,3.04,5.27,83.22-58.17,87.6-50.58,4.92,8.53-72.25,60.96-69.9,65.02,4.81,8.34,61.81-46.35,66.43-38.35,4.12,7.14-75.52,62.9-72.54,68.07,5.14,8.91,67.39-46.62,70.73-40.84s-86.34,63.45-81.21,72.33c2.79,4.84,81.36-56.86,85.64-49.44,2.92,5.06-83.73,65.2-79.82,71.98,3.68,6.38,72.39-55.1,78.15-45.12,4.21,7.29-70.8,59.99-68.01,64.82,5.21,9.03,61.51-43.51,64.97-37.51,2.96,5.13-71.04,57.16-66.5,65.01,2.75,4.77,72.87-48.26,75.55-43.62,5.4,9.36-87.94,69.04-84.27,75.38,5.55,9.61,72.99-50.89,76.78-44.33,3.47,6-71.71,59.21-68.46,64.85,4.42,7.65,66.01-50.15,71.22-41.12,2.92,5.06-85.54,67.12-81.39,74.31,3.16,5.48,69.3-53.92,75.32-43.49,4.39,7.61-80.69,64.79-77.83,69.74,3.88,6.73,84.94-62.33,90.69-52.36,4.59,7.95-90.19,68.4-85.94,75.77,5.59,9.68,69.25-54.17,75.4-43.53,4.52,7.83-78.47,62.05-73.83,70.09,2.95,5.11,68.36-53.69,74.52-43.02,2.83,4.89-92.02,65.55-86.16,75.71,3.54,6.13,79.22-52.5,82.15-47.43,3.87,6.7-76.41,61.04-72.43,67.92,2.88,4.99,69.53-47.39,72.67-41.96,4.43,7.67-64,59.26-61.82,63.04,4.41,7.64,58.31-43.38,62.52-36.1,2.82,4.88-82.13,67.3-79.64,71.62,3.99,6.9,89.43-63.68,94.65-54.64,4.51,7.82-94.79,68.76-89.7,77.58,3.08,5.33,72.84-53.86,77.95-45.01,2.18,3.77-69.99,57.82-65.76,65.15,5.61,9.71,56.44-46.18,62.33-35.98,3.77,6.53-85.51,63.06-80.28,72.13,4.11,7.12,91.49-65.74,97.09-56.05,5.97,10.34-103.64,70.3-97.07,81.68,5.4,9.36,92.62-64,97.18-56.11,5.69,9.86-88.04,65.95-82.65,75.3,5.77,9.99,59.89-40.89,62.62-36.15s-67.8,53.39-63.21,61.34c4.09,7.09,78.46-51.55,81.17-46.86,4.49,7.78-88.97,67.69-85.11,74.37,5.19,8.99,67.31-46.91,70.8-40.88,2.27,3.94-76.9,60.88-72.1,69.18,3.12,5.4,79.18-56.3,83.77-48.36,3.14,5.44-94.5,66.77-88.86,76.55s74.64-53.77,79.26-45.76c3.87,6.71-71.53,60.21-68.62,65.26,4.35,7.54,76.06-57.76,82.05-47.37,5.3,9.19-86.85,63.24-81.91,71.79,5.8,10.05,68.84-48.72,72.73-41.99,3.51,6.08-83.35,64.71-79.34,71.66,5.03,8.72,67.13-48.09,71.17-41.09,4.36,7.55-67.23,58.11-64.04,63.62,4.03,6.98,73.03-49.79,76.33-44.07,4.08,7.07-79.03,61.97-75.03,68.9,4.57,7.92,62.5-45.18,66.44-38.36,2.59,4.48-70.24,57.7-66.74,63.75,3.07,5.32,63.08-43.53,66.16-38.2"/><path class="cls-2" d="m21.58,83.92c1.67,2.89,20-14.69,21.36-12.33,2.3,3.99-28.27,37.47-26.08,41.27,5.09,8.82,65.01-47.29,69.24-39.97,2.88,4.99-61.65,54.95-58.37,60.62,7.8,13.51,88.16-65.83,94.62-54.63,4.07,7.05-99.44,74.36-95.73,80.79,5.95,10.31,128.46-96.7,138.22-79.8,8.31,14.4-146.97,96.07-141.24,106.01,8.47,14.67,182.68-126.63,191.84-110.76,11.07,19.18-201.7,126.46-194.56,138.81,15.03,26.04,215.65-158.38,230.32-132.97,13.33,23.09-234.5,140.14-225.87,155.08,3.62,6.27,72.01-49.47,75.43-43.55,3.15,5.46-87.47,65.43-82.14,74.67,4.44,7.69,74.1-50.28,77.35-44.66,4.02,6.97-81.52,65.02-77.72,71.61,4.93,8.53,64.75-51.67,70.94-40.95,3.02,5.23-72.33,61.73-70.07,65.65,4.59,7.94,70.48-52.78,75.71-43.71,3.21,5.56-77.94,64.38-74.9,69.65,4.04,6.99,74.48-50.22,77.6-44.8,2.84,4.91-73.75,58.75-69.98,65.28,5.37,9.29,56.69-45.21,62.09-35.85,3,5.2-84.81,63.28-79.46,72.54,5.66,9.8,73.93-49.2,76.75-44.31,3.72,6.45-80.21,65.37-77.78,69.57,3.56,6.16,79.17-58.12,84.54-48.81,2.59,4.49-71.74,61.84-68.84,66.87,5.82,10.08,63.97-45.5,67.68-39.08,3.94,6.82-83.32,61.07-77.86,70.52,4.01,6.95,78.24-55.09,82.53-47.65,2.45,4.25-79.05,64.58-76.45,69.08,2.89,5,65.69-48.06,70.08-40.46,2.43,4.21-67.56,54.04-63.26,61.49,5.8,10.05,67.75-48.89,71.98-41.56s-85.51,64.93-81.15,72.49,85.01-55.44,87.76-50.67c3.54,6.13-89.08,68.23-84.77,75.69s61.71-49.64,67.78-39.13c3.35,5.8-63.49,58.1-61.19,62.09,5.82,10.08,57.66-40.26,60.68-35.03,2.46,4.27-83.53,67.58-80.39,73.02,6.03,10.45,86.88-64.16,92.94-53.66,3.17,5.5-81.9,62.44-76.86,71.16,6.02,10.43,64.12-48.67,69.16-39.93,2.62,4.54-79.05,65.97-76.56,70.29,3.75,6.49,78.1-54.11,82.01-47.35,4.41,7.63-83.18,64.15-78.74,71.83s75.23-54.46,80-46.19c3.53,6.11-98.84,69.44-92.45,80.51,3.44,5.95,78.24-57.83,83.72-48.34S6.23,759.91,10.19,766.77c5.57,9.65,89.72-63.86,94.94-54.81,4.75,8.23-82.63,62.15-77.51,71.02s63.98-46.99,68.33-39.45c3.16,5.47-88.76,70.34-85.65,75.74,3.9,6.76,72.77-51.05,76.68-44.27,5.14,8.89-78.01,64.21-75.67,68.27,3.64,6.3,84.01-57.95,88.1-50.86,3.56,6.17-80.11,63.4-76.19,70.19,4.39,7.61,74.36-49.6,77.25-44.6,3.64,6.31-96.25,71.19-91.21,79.92,3.4,5.89,88.62-61.07,92.91-53.64,3.81,6.6-81.5,66.73-78.13,72.58,4.32,7.48,71.53-47.86,74.37-42.94,3.45,5.98-78.82,63.87-75.62,69.41,5.89,10.2,78.67-58.03,84.13-48.57,3.1,5.37-87.65,65.07-82.42,74.13,5.37,9.3,74.2-51.13,77.79-44.91,5.27,9.13-93.47,68.77-88.72,77.01s81.77-59.99,87.31-50.41-81.7,60.34-76.55,69.27c3.82,6.62,75.41-56.39,80.97-46.75,4.67,8.09-96.77,75.71-93.86,80.73,5.26,9.12,84.98-57.57,88.66-51.19,3.45,5.97-94.64,70.76-90.7,77.58,3.53,6.11,91.64-61.23,95.25-54.99s-82.17,69.28-79.7,73.57c5.97,10.33,69.35-47.66,72.65-41.95,5.44,9.43-83.95,68.71-80.91,73.98,3.99,6.91,80.23-53.3,83.25-48.06,3.77,6.53-85.79,70.72-83.13,75.32,6.05,10.48,72.58-50.54,76.32-44.06,2.31,3.99-74.34,59.53-70.7,65.83,5.79,10.03,61.2-45.18,65.46-37.8,2.57,4.45-74.27,59.53-69.69,67.46,5.85,10.12,71.08-49.52,74.75-43.16,2.26,3.91-72.47,60.81-69.97,65.14,3.79,6.56,74.96-56.41,80.65-46.56,3.65,6.32-79.77,62.8-76.32,68.79,5.16,8.94,69.61-48.74,73.32-42.33,3.97,6.88-83.05,63.96-78.56,71.74,5.58,9.67,76.95-53.82,81.02-46.78,3.05,5.28-91.83,68.73-87.19,76.77,3.9,6.75,77.36-51.04,80.12-46.26,4.03,6.98-77.84,62.58-74.35,68.62,2.87,4.96,72.34-50.5,76.12-43.95,2.79,4.84-79.5,60.86-74.53,69.47,6.69,11.6,83.21-63.23,89.79-51.84,3.17,5.49-68.33,59.71-65.16,65.2,4.21,7.28,121.2-83,126.84-73.23,4.45,7.72-106.43,73.43-100.58,83.55,6.62,11.47,141.7-96.21,147.94-85.41s-102.22,71.7-96.75,81.17,114.11-83.25,121.63-70.23c3.15,5.46-85.83,66.3-81.31,74.12,6.82,11.81,132.74-95.64,140.97-81.39,3.9,6.76-109.67,76.19-103.58,86.72,8.8,15.24,137.55-96.19,144.82-83.61,3.31,5.74-99.02,75.4-95.44,81.6,9.02,15.62,124.48-92.92,133.6-77.13,3.85,6.67-86.41,63.28-81.45,71.88,4.38,7.58,131.18-90.57,137.6-79.45,3.81,6.6-97.72,69-92.36,78.29,7.58,13.12,116.56-87.52,125.32-72.35,4.43,7.68-82.79,62.07-77.27,71.62,6.89,11.93,124.54-93.84,134.04-77.39,4.11,7.12-110.64,79.29-106.12,87.12,7.8,13.5,132.99-96.2,141.4-81.64,5.64,9.77-95.65,69.4-91.19,77.13,5.33,9.23,126.98-92.02,135.08-77.99,4.15,7.19-95.42,68.83-90.31,77.68,7.25,12.55,142.65-97.65,149.27-86.18s-106.26,78.94-102.37,85.67c8.24,14.27,132.52-95.92,140.92-81.36,5.41,9.37-100.31,75.37-96.09,82.69,5.24,9.07,128.59-96.77,138.34-79.87,4.29,7.42-90.78,67.4-85.74,76.12,5.53,9.57,125.53-85.21,131.05-75.66,3.41,5.91-103.08,73.96-97.9,82.93,7.92,13.72,145.89-100.36,152.87-88.26,6.6,11.43-103.72,76.19-99.54,83.44,7.79,13.5,133.07-94.74,140.83-81.31,3.65,6.32-87.77,71.04-84.9,76.01,11.46,19.86,210.19-147.39,221.47-127.86,10.92,18.91-202.26,122.69-193.35,138.14s200.81-139.35,210.95-121.79c10.24,17.73-175.7,109.06-167.85,122.66,7.69,13.32,148.55-107.77,158.08-91.27,5.87,10.18-110.99,77.11-105.69,86.3,7.14,12.37,99.64-69.81,104.96-60.6,4.39,7.61-64.88,57.55-62.2,62.19,4.28,7.41,62.82-41.83,65.23-37.66,1.82,3.15-16.43,31.71-14.95,34.27,1.63,2.83,3.62-4.48,4.65-2.69"/></g><g><path class="cls-1" d="m19.38,468.81c.63,1.09,10.12-7.39,10.79-6.23.55.95-10.28,16.03-9.61,17.19,4.21,7.29,64.07-42,66.24-38.24,2.77,4.79-64.34,43.82-61.55,48.65,25.6,44.34,403.73-267.52,418.63-241.7,21.24,36.79-428.9,214.54-409.18,248.68,16.88,29.24,387.45-264.7,405.21-233.95,12.25,21.21-424.01,225.48-410.2,249.41,19.65,34.04,393.43-266.97,410.67-237.1C459,307.77,2.05,494.38,22.63,530.01c13.25,22.95,375.94-244.79,387.95-223.98,11.38,19.7-397.78,216.72-387.39,234.72,14.6,25.28,357.86-247.52,375.58-216.84S20.21,525.1,32.93,547.13c17.43,30.19,344.96-231.86,359.12-207.34,21.54,37.31-386.78,189.96-367.52,223.3,14.61,25.3,350.77-242.02,367.88-212.4S7.13,537.79,27.08,572.35s321.02-215.14,333.92-192.79c16.83,29.15-333.2,175.02-321.03,196.1,15.98,27.68,304.57-224.35,325.57-187.97,13.37,23.15-354.99,192.18-343.7,211.74,10.88,18.84,304.91-199.82,315.21-181.98,17.91,31.03-332.32,165-315.72,193.77,15.29,26.49,280.29-185.31,290.46-167.7,8,13.85-304.44,151.31-288.19,179.45,15.44,26.73,247.77-175.92,262.01-151.27,6.94,12.03-271.46,131.95-255.98,158.77,9.52,16.49,220.29-147.75,229.19-132.32,5.98,10.36-227.19,115.72-215.55,135.88s154.99-116.41,166.65-96.22"/><path class="cls-1" d="m487.52,58.44c.33.57,4.01-3.14,4.37-2.52.49.85-3.32,11.74-2.83,12.58.86,1.49,10.35-8.95,11.63-6.72.7,1.21-11.46,17.39-10.55,18.98,1.59,2.76,10.39-13.42,13.61-7.86,1.37,2.37-26.42,25.08-25.57,26.56,1.61,2.79,27.02-23.43,30.41-17.56,1.31,2.27-45.44,32.5-43.68,35.55,2.91,5.03,40.7-30.73,43.83-25.3,2.92,5.07-68.81,43.18-65.27,49.32,2.33,4.03,64.9-47.26,69.14-39.92,3.31,5.74-81.85,51.46-79.1,56.21,2.22,3.85,56.5-43.33,61.14-35.3,3.96,6.85-68.57,43.17-65.24,48.92,2.48,4.3,58.18-40.07,60.99-35.21,4.24,7.34-84.46,48.71-79.93,56.56,4.08,7.08,68.57-52.63,74.21-42.85,4.75,8.22-91.95,59.01-89.14,63.87,6.25,10.83,87.67-60.81,92.08-53.16s-114.23,69.04-110.85,74.91c3.75,6.49,105.18-75.25,111.47-64.36,6.87,11.91-146.32,78.43-137.88,93.05,7.55,13.08,117.74-84.02,124.69-71.99,5.34,9.24-158.53,84.3-149.58,99.8,8.22,14.24,139.5-98.77,147.39-85.1,11.55,20-222.56,111.71-210.6,132.44,10.15,17.58,179.45-131.51,191.54-110.58"/></g><path class="cls-2" d="m546.35,58.38c.58,3.28,8.71-5.29,9.35-1.65.41,2.33-11.93,19.31-11.41,22.27.99,5.62,24.79-8.21,25.44-4.49.48,2.73-8.44,19.19-7.92,22.19,1.01,5.76,24.4-9.55,25.3-4.46.83,4.71-27.59,21.02-26.85,25.22.97,5.49,30.57-11.38,31.59-5.57.65,3.69-17.85,18.18-17.24,21.65,1.14,6.49,30.1-9.95,30.89-5.45.67,3.78-28.33,19.94-27.55,24.4.97,5.51,26.02-11.84,27.26-4.81.63,3.59-23.89,20.29-23.27,23.81,1.32,7.47,23.58-11.85,24.89-4.39.75,4.24-27.75,21.09-26.93,25.75,1.23,7,43.19-13.76,44.24-7.8.8,4.53-29.05,21.71-28.23,26.33,1.21,6.86,42.49-17.61,44.22-7.8,1.06,6-42.13,22.32-41.21,27.57,1.61,9.15,56.5-19.47,58.13-10.25,1.24,7.06-44.94,21.62-44.06,26.62,1.74,9.88,55.56-16.7,56.74-10,.84,4.76-38.09,22.26-37.38,26.3,1.71,9.68,44.85-18.09,46.59-8.22.69,3.89-38.3,20.54-37.33,26.05,2.18,12.36,64.93-24.36,67.14-11.84,1.36,7.74-68.17,22.81-66.56,31.97,1.91,10.82,78.46-27.37,80.77-14.24,1.7,9.63-71.75,24.05-70.43,31.56,2.46,13.95,82.64-29.09,85.12-15.01,1.54,8.75-78.79,21.85-76.82,33.02,2.25,12.79,92.51-31.89,95.17-16.78,1.44,8.19-87.96,24.09-86.07,34.81,2.74,15.53,109.81-35.8,112.62-19.86,2.04,11.55-84.1,23.93-82.02,35.72,2.78,15.75,87.12-28.53,89.37-15.76,1.65,9.35-92.81,23.35-90.71,35.25,2.71,15.37,133.71-36.03,135.84-23.95,2.69,15.23-114.22,25.5-111.82,39.14,3.12,17.69,116.52-36.2,119.2-21.02,1.76,9.98-96.72,26.6-95.03,36.17,3.71,21.02,132.22-40.68,135.18-23.84,1.82,10.31-120.59,31.2-118.74,41.71,3.67,20.8,123.2-37.62,125.92-22.2,3.16,17.91-127.22,27.04-124.42,42.95,3.35,18.99,159.6-47.94,162.99-28.74,2.95,16.73-135.3,26.58-132.52,42.36,4.54,25.75,173.59-50.1,176.92-31.2,3.35,19.02-161.19,26.64-157.4,48.11,5,28.37,183.06-63.83,188.46-33.23,4.2,23.84-190.87,35.75-187.67,53.87,4.02,22.8,218.8-60.14,222.49-39.23,4.26,24.18-208.9,27.66-203.91,55.92,4.67,26.51,189.8-54.16,193.34-34.09,3.33,18.9-162.52,26.53-158.49,49.35,3.12,17.72,150.86-49.59,154.79-27.29,3.02,17.13-129.51,29.4-127.31,41.89,3.78,21.44,117.31-38.85,120.41-21.23,2.61,14.81-109.85,26.47-107.82,37.95,2.12,12.04,103.48-35.81,106.48-18.78,2.01,11.42-79.72,24.88-78.39,32.41,2.56,14.5,93.82-26.39,95.5-16.84.94,5.36-57.99,22.92-56.78,29.8,1.7,9.62,43.8-16.85,45.36-8,.75,4.28-38.76,24.02-38.08,27.86,1.39,7.88,31.02-10.59,31.89-5.62.49,2.77.5,18.75.94,21.24s21.2-7.01,21.76-3.84"/><g><path class="cls-2" d="m505.62,46.29c.47.81,6.37-4.85,6.88-3.97,1.18,2.04-4.28,27.56-2.76,30.2,3.21,5.56,31.48-22.17,33.21-19.18,1.84,3.18-15.52,35.39-14.07,37.9,2.99,5.19,28.23-21.07,30.29-17.49,1.39,2.4-31.05,43.31-29.31,46.32,3.27,5.66,24.46-18.89,26.53-15.32,1.21,2.1-12.06,31.66-10.26,34.78.72,1.25,17.42-12.44,18.45-10.65"/><path class="cls-2" d="m323.28,25.38c.75,1.3,13.52-8.93,14.01-8.09,1.27,2.21,11.86,20,13.02,22.01,2.83,4.9,21.33-18.76,24.12-13.92,1.6,2.77-23.6,38.89-22.42,40.93,4.77,8.26,58.74-45.54,63.77-36.82,2.99,5.17-59.9,55.68-57.11,60.5,6.23,10.79,90.6-67.05,96.98-55.99,5.56,9.62-121.67,84.52-115.09,95.92,9.44,16.35,132.83-91.79,139.37-80.46,5.8,10.05-117.28,85.81-112.74,93.67,4.06,7.03,126.59-87.11,132.66-76.59,3.2,5.54-69.57,58.73-65.2,66.29,2.95,5.1,48.11-39.24,53.07-30.64,1.09,1.89,2.21,24.08,3.23,25.85,1.66,2.88,11.51-9.76,12.86-7.42"/><path class="cls-2" d="m581.38,42.08c1.47,2.55,2.44-5.11,4.05-2.34,1.49,2.57-14.71,32.67-12.79,35.99,5.07,8.79,63.66-43.07,66.4-38.34,3.52,6.09-53.13,54.04-50.35,58.85,7.53,13.04,117.12-79.6,122.31-70.61,3.88,6.72-123.21,89.3-118.35,97.73,9.97,17.27,139.34-95.01,145.64-84.09,4.55,7.87-109.81,76.69-103.07,88.36,4.31,7.47,85.92-63.85,92.09-53.17,3.68,6.38-59.75,56.03-56.29,62.04,3.9,6.75,48.34-33.4,50.72-29.28,1.2,2.09-17.3,32.77-15.66,35.6,1.9,3.29,20.34-16.86,22.55-13.02,1.18,2.05,3.6,23.34,4.45,24.79.62,1.07,10.82-7.14,11.21-6.47"/></g></g></g></svg>